<svg width="48" height="48" viewBox="-14 -12 48 48" fill="none" xmlns="http://www.w3.org/2000/svg">
<path d="M19.5802 18.7033C19.2342 19.5184 18.8068 20.2956 18.3045 21.0229C17.6335 21.9914 17.0825 22.6607 16.6602 23.0332C16.0042 23.6418 15.2996 23.9549 14.5461 23.9726C14.0064 23.9726 13.3542 23.8173 12.5945 23.5016C11.8323 23.1872 11.1326 23.0332 10.4917 23.0332C9.8207 23.0332 9.10102 23.1872 8.33011 23.5016C7.56044 23.8173 6.93822 23.9827 6.46217 23.9979C5.74124 24.0294 5.0203 23.7087 4.30187 23.0332C3.84332 22.6291 3.26982 21.9346 2.58137 20.9522C1.84419 19.9054 1.23821 18.6869 0.763416 17.3017C0.254889 15.8029 0 14.3533 0 12.9491C0 11.3417 0.3436 9.95397 1.03205 8.79228C1.55276 7.87993 2.29718 7.11847 3.1936 6.58127C4.07755 6.04546 5.08663 5.75695 6.11732 5.74535C6.69207 5.74535 7.44549 5.92465 8.37883 6.27821C9.31218 6.63177 9.91191 6.81108 10.1731 6.81108C10.3705 6.81108 11.0339 6.60021 12.1634 6.18225C13.2292 5.79459 14.1288 5.63423 14.866 5.69737C16.8651 5.86026 18.3657 6.65577 19.364 8.09021C17.5773 9.18498 16.6939 10.7167 16.7114 12.6827C16.7264 14.2144 17.2774 15.4885 18.357 16.4999C18.8342 16.9615 19.3911 17.3308 20 17.5896C19.8676 17.9773 19.7276 18.3472 19.5802 18.7033V18.7033ZM14.9984 0.481094C14.9984 1.68067 14.5636 2.80196 13.7003 3.83865C12.6557 5.07106 11.3938 5.78449 10.0256 5.67211C10.0077 5.52127 9.99896 5.36946 9.99938 5.21753C9.99938 4.06468 10.4942 2.83227 11.3775 1.82336C11.8173 1.31322 12.3771 0.887688 13.0555 0.549281C13.7327 0.215924 14.3725 0.0315679 14.9747 0C14.9909 0.161627 14.9984 0.321992 14.9984 0.481094V0.481094Z" fill="white"/>
</svg>
