<svg width="126" height="126" viewBox="0 0 126 126" fill="none" xmlns="http://www.w3.org/2000/svg">
<g clip-path="url(#clip0_1840_34005)">
<path d="M52.0687 30.1111C52.0687 36.1723 52.0687 42.2335 52.0687 48.2705C52.0687 50.9374 53.0119 51.8587 55.5996 51.786C60.4365 51.6405 65.2733 51.592 70.1102 51.786C73.1574 51.9314 74.0522 50.7677 74.0038 47.8098C74.0038 36.2451 74.0038 24.6561 74.0038 13.0913C74.0038 10.2062 74.1731 7.36956 78.0184 7.49079C81.501 7.61201 81.7912 10.2547 81.767 12.9943C81.767 17.4311 81.767 21.8922 81.767 26.329C81.767 28.5595 82.42 29.6505 84.7175 29.3838C85.1286 29.3838 85.5397 29.3838 85.9267 29.3838C89.119 29.1414 93.182 30.7173 95.286 28.6807C97.39 26.6441 95.8664 22.8135 95.9873 19.7586C96.1083 16.7038 96.8822 14.9097 100.002 14.9097C103.122 14.9097 103.847 17.1644 104.065 19.7586C104.283 22.3528 102.662 26.6926 104.936 28.6565C107.209 30.6203 111.127 29.1414 114.295 29.3353C116.254 29.4565 118.092 29.5293 118.116 26.6199C118.14 23.7105 118.116 22.1104 114.585 22.3528C114.073 22.414 113.553 22.3562 113.067 22.1838C112.58 22.0114 112.14 21.7291 111.78 21.3587C111.42 20.9883 111.15 20.5398 110.99 20.0479C110.831 19.5561 110.787 19.034 110.861 18.5222C110.827 18.0211 110.902 17.5187 111.081 17.0496C111.26 16.5806 111.539 16.1562 111.898 15.8057C112.257 15.4552 112.687 15.1871 113.159 15.0198C113.632 14.8526 114.135 14.7902 114.633 14.8369C117.439 15.0067 118.019 13.7217 118.019 11.2487C118.019 8.77576 117.294 7.63626 114.585 7.68475C114.04 7.73918 113.489 7.66562 112.977 7.46989C112.465 7.27416 112.006 6.96164 111.635 6.55706C111.264 6.15248 110.992 5.66694 110.841 5.13888C110.69 4.61083 110.664 4.05474 110.764 3.51465C110.933 1.11442 112.529 -0.000841949 114.899 -0.000841949C126.314 -0.000841949 126.097 -0.970631 125.976 10.3274C125.976 17.4554 125.976 24.5833 125.976 31.7355C125.976 36.2451 124.815 37.4331 120.22 37.4331C108.66 37.4331 97.124 37.4331 85.5639 37.4331C82.6618 37.4331 81.4526 38.1362 81.6219 41.2637C81.8879 45.7005 81.6219 50.1616 81.6219 54.5984C81.6219 57.9441 80.2192 59.6655 76.785 59.4473C76.6563 59.4352 76.5268 59.4352 76.3981 59.4473C67.0146 59.6413 67.0146 59.6413 67.0146 68.9755C67.0146 71.8121 67.0146 74.6245 67.0146 77.4612C67.0575 78.0143 66.9859 78.5704 66.8042 79.0945C66.6225 79.6185 66.3347 80.0993 65.9589 80.5066C65.583 80.9138 65.1272 81.2387 64.6201 81.461C64.113 81.6832 63.5655 81.7979 63.0121 81.7979C62.4587 81.7979 61.9112 81.6832 61.4041 81.461C60.897 81.2387 60.4412 80.9138 60.0653 80.5066C59.6895 80.0993 59.4017 79.6185 59.22 79.0945C59.0383 78.5704 58.9667 78.0143 59.0096 77.4612C59.0096 72.6122 58.8403 67.7633 59.0096 62.9143C59.0096 60.2959 58.2357 59.2291 55.5754 59.4715C53.5681 59.6413 51.5367 59.4715 49.5294 59.4715C45.6841 59.6897 44.2088 57.7987 44.3298 54.0892C44.4507 50.3798 44.3298 46.8158 44.3298 43.1791C44.3298 37.0936 45.2729 37.4573 38.3804 37.4331H6.52975C0.894818 37.4816 0 36.5845 0 30.9112C0 22.4256 0 13.9399 0 5.45423C0 0.896214 0.894818 -0.000841949 5.48983 -0.000841949C7.3762 -0.000841949 9.23839 -0.000841949 11.1248 -0.000841949C11.6342 -0.0781781 12.1543 -0.0435808 12.6491 0.100554C13.1438 0.244689 13.6015 0.494917 13.9902 0.833908C14.379 1.1729 14.6896 1.59255 14.9005 2.0638C15.1115 2.53506 15.2177 3.04664 15.2119 3.56314C15.3096 4.1059 15.2793 4.66402 15.1237 5.193C14.968 5.72198 14.6912 6.20717 14.3153 6.60989C13.9395 7.01261 13.4749 7.32171 12.9588 7.51253C12.4426 7.70336 11.8891 7.77063 11.3424 7.70899C8.17428 7.56352 7.93244 9.26066 7.98081 11.7094C8.02917 14.1581 8.63378 14.9339 10.9797 14.7885C11.5215 14.6905 12.0785 14.7184 12.6079 14.8699C13.1373 15.0214 13.6251 15.2924 14.0337 15.6623C14.4424 16.0322 14.7611 16.491 14.9653 17.0036C15.1695 17.5161 15.2539 18.0688 15.2119 18.6191C15.2673 19.1651 15.1945 19.7165 14.9992 20.2291C14.8039 20.7418 14.4916 21.2015 14.0873 21.5715C13.683 21.9415 13.1979 22.2114 12.6709 22.3597C12.1439 22.508 11.5895 22.5306 11.0522 22.4256C7.93244 22.2074 8.05336 24.2439 7.98081 26.329C7.98081 28.9474 9.2142 29.5293 11.4633 29.408C14.6798 29.2141 18.7186 30.3051 20.9194 28.8262C23.1202 27.3472 21.7658 22.8377 22.0319 19.7101C22.2737 17.019 23.0234 14.8612 26.1674 14.8612C29.3113 14.8612 30.0127 17.116 30.1094 19.8556C30.3754 29.5535 30.4238 29.408 40.2426 29.5535C43.2656 29.5535 44.5958 28.9232 44.3781 25.5531C44.0879 21.2861 44.3781 16.9462 44.3781 12.6549C44.3781 9.93951 44.9827 7.80597 48.1992 7.58777C51.4157 7.36956 52.1413 9.72131 52.1413 12.4367C52.0203 18.2555 52.0445 24.2439 52.0687 30.1111Z" fill="#2A2D33"/>
<path d="M63.0725 88.5418C67.6192 88.5418 72.1658 88.5418 76.7367 88.5418C79.9773 88.5418 81.7186 90.045 81.5735 93.3908C81.5735 97.8033 81.5735 102.24 81.5735 106.677C81.5735 109.635 80.2192 111.211 77.1962 111.186C74.9228 111.186 72.6253 111.186 70.352 111.186C69.8461 111.236 69.3354 111.175 68.855 111.009C68.3746 110.842 67.9356 110.574 67.5682 110.222C67.2009 109.87 66.9137 109.442 66.7263 108.968C66.5389 108.495 66.4557 107.986 66.4825 107.477C66.4825 105.052 67.6192 103.428 70.086 103.598C73.5685 103.84 73.5443 101.755 73.5443 99.258C73.5443 96.3729 71.6821 96.5426 69.7232 96.5426C64.7654 96.5426 59.8077 96.5426 54.8499 96.5426C52.4315 96.5426 51.851 97.6336 51.9478 99.7429C52.0445 101.852 51.6818 103.719 54.6564 103.549C57.6311 103.38 59.4933 104.519 59.2756 107.671C59.058 110.823 56.6879 111.235 54.0518 111.283C44.1363 111.405 44.1363 111.453 44.1363 101.319C44.1363 98.6519 44.1363 95.9607 44.1363 93.2695C44.0426 92.6216 44.099 91.9607 44.301 91.338C44.503 90.7154 44.8452 90.1477 45.3011 89.6789C45.7571 89.2101 46.3145 88.8527 46.9303 88.6345C47.5461 88.4163 48.2037 88.3431 48.8522 88.4206C53.6649 88.5176 58.3566 88.5418 63.0725 88.5418Z" fill="#2A2D33"/>
<path d="M7.25509 55.5206C7.25509 43.8346 6.50538 44.0771 18.6942 44.1983C23.12 44.1983 27.5457 44.1983 31.9714 44.1983C35.599 44.1983 37.558 45.6045 37.3161 49.4836C37.1952 51.496 37.3161 53.5083 37.3161 55.5206C37.3608 56.0291 37.2975 56.5413 37.1303 57.0234C36.9631 57.5056 36.6959 57.9468 36.3463 58.3179C35.9967 58.689 35.5726 58.9816 35.102 59.1764C34.6313 59.3713 34.1249 59.4639 33.6159 59.4482C31.1975 59.4482 29.5772 58.2603 29.7465 55.8358C29.9641 52.587 28.4647 51.9324 25.6835 52.1748C23.5553 52.3445 21.4029 52.1748 19.2505 52.1748C17.0981 52.1748 15.1875 51.9566 15.3084 55.1084C15.3084 57.5329 15.3084 59.3513 18.6217 59.1816C19.1642 59.1016 19.7179 59.1513 20.2377 59.3264C20.7575 59.5016 21.2287 59.7974 21.6129 60.1896C21.9971 60.5819 22.2835 61.0596 22.4487 61.5837C22.6139 62.1079 22.6533 62.6638 22.5637 63.2062C22.4186 65.8004 20.7015 66.8671 18.1864 66.8671C6.81977 66.9641 7.25509 67.74 7.25509 55.5206Z" fill="#2A2D33"/>
<path d="M103.775 44.2207H113.449C116.883 44.2207 118.721 45.7239 118.672 49.3121C118.672 53.6034 118.672 57.919 118.672 62.2103C118.672 65.2894 117.27 67.0593 114.053 67.0593C112.022 67.0593 110.014 67.0593 108.007 67.0593C105.347 67.0593 103.436 65.9925 103.412 63.1801C103.364 62.6339 103.441 62.0838 103.638 61.5722C103.835 61.0605 104.146 60.601 104.548 60.2287C104.949 59.8565 105.431 59.5815 105.955 59.4248C106.479 59.2682 107.032 59.2341 107.572 59.3252C110.184 59.4707 110.667 58.1372 110.692 55.8824C110.716 53.6277 110.135 52.0518 107.354 52.3185C105.477 52.4276 103.596 52.4276 101.719 52.3185C98.7445 52.3185 95.6973 51.7366 96.1568 56.5613C96.3503 58.4766 94.5607 59.5676 92.5775 59.5676C92.1039 59.6179 91.625 59.5696 91.1708 59.4256C90.7166 59.2817 90.297 59.0453 89.9383 58.7311C89.5795 58.417 89.2894 58.032 89.086 57.6002C88.8826 57.1684 88.7704 56.6992 88.7564 56.2219C88.563 53.4128 88.563 50.5937 88.7564 47.7847C88.9257 45.3602 90.7395 44.4147 92.9887 44.3662C96.5921 44.3662 100.244 44.3662 103.823 44.3662L103.775 44.2207Z" fill="#2A2D33"/>
<path d="M62.589 126.071H55.7449C55.239 126.126 54.7274 126.073 54.2433 125.916C53.7592 125.759 53.3134 125.502 52.9348 125.162C52.5562 124.821 52.2533 124.404 52.0458 123.939C51.8383 123.473 51.7308 122.969 51.7303 122.459C51.6597 121.949 51.7009 121.429 51.8512 120.937C52.0014 120.445 52.257 119.991 52.6 119.608C52.9431 119.225 53.3655 118.921 53.8376 118.718C54.3098 118.516 54.8203 118.419 55.3337 118.434C60.4286 118.256 65.5314 118.256 70.6424 118.434C71.1558 118.419 71.6664 118.516 72.1385 118.718C72.6106 118.921 73.033 119.225 73.3761 119.608C73.7192 119.991 73.9747 120.445 74.125 120.937C74.2752 121.429 74.3164 121.949 74.2458 122.459C74.2526 122.969 74.1509 123.474 73.9474 123.942C73.7439 124.409 73.4433 124.828 73.0657 125.17C72.6881 125.512 72.2421 125.769 71.7575 125.924C71.2729 126.08 70.7609 126.13 70.2554 126.071H62.589Z" fill="#2A2D33"/>
<path d="M52.0203 74.1878C52.0203 75.4 52.0203 76.6123 52.0203 77.8003C52.0741 78.3019 52.018 78.8093 51.8559 79.287C51.6938 79.7647 51.4297 80.2012 51.082 80.5659C50.7342 80.9307 50.3113 81.215 49.8426 81.3989C49.3739 81.5829 48.8709 81.662 48.3685 81.6309C47.8582 81.6975 47.3394 81.649 46.8501 81.489C46.3608 81.329 45.9133 81.0615 45.5403 80.7061C45.1672 80.3506 44.8779 79.9162 44.6936 79.4345C44.5093 78.9528 44.4346 78.4359 44.4749 77.9215C44.4749 75.1818 43.6768 74.0908 40.823 74.1878C40.3023 74.259 39.7723 74.2069 39.2753 74.0356C38.7784 73.8643 38.3284 73.5785 37.9615 73.2013C37.5947 72.8241 37.3211 72.366 37.1629 71.8636C37.0046 71.3612 36.9661 70.8286 37.0503 70.3086C37.007 69.7988 37.0745 69.2856 37.2481 68.8045C37.4217 68.3233 37.6973 67.8856 38.0559 67.5215C38.4145 67.1574 38.8476 66.8756 39.3253 66.6954C39.803 66.5153 40.314 66.4411 40.823 66.478C42.0081 66.478 43.2415 66.478 44.4265 66.478C52.0203 66.5022 52.0687 66.5507 52.0203 74.1878Z" fill="#2A2D33"/>
<path d="M73.9072 73.8483C74.2699 71.7633 72.7463 68.466 75.6484 67.2295C79.3307 65.8987 83.3538 65.8559 87.0634 67.1083C88.8047 67.5932 89.1916 69.5328 88.9014 71.1572C88.7924 72.042 88.3521 72.8523 87.6696 73.424C86.9871 73.9957 86.1134 74.286 85.2254 74.2362C83.2423 74.2362 81.4527 74.2362 81.6461 77.1214C81.7742 77.6916 81.7661 78.2842 81.6224 78.8507C81.4787 79.4172 81.2035 79.9416 80.8192 80.3812C80.4349 80.8209 79.9524 81.1632 79.4111 81.3804C78.8697 81.5975 78.2848 81.6834 77.7041 81.6309C74.5118 81.6309 73.8346 79.2064 73.9314 76.588C73.9314 75.7879 73.9072 74.9878 73.9072 73.8483Z" fill="#2A2D33"/>
</g>
<defs>
<clipPath id="clip0_1840_34005">
<rect width="126" height="126" fill="white"/>
</clipPath>
</defs>
</svg>
