<svg width="16" height="16" viewBox="0 0 16 16" fill="none" xmlns="http://www.w3.org/2000/svg">
<path d="M9.77373 7.99882L15.1833 2.60104C15.4202 2.36412 15.5533 2.04277 15.5533 1.70771C15.5533 1.37264 15.4202 1.0513 15.1833 0.814369C14.9464 0.577441 14.6251 0.444336 14.2901 0.444336C13.9551 0.444336 13.6338 0.577441 13.3969 0.814369L7.99989 6.22472L2.60288 0.814369C2.36599 0.577441 2.04469 0.444336 1.70967 0.444336C1.37465 0.444336 1.05336 0.577441 0.816463 0.814369C0.579569 1.0513 0.446483 1.37264 0.446483 1.70771C0.446483 2.04277 0.579569 2.36412 0.816463 2.60104L6.22605 7.99882L0.816463 13.3966C0.698549 13.5136 0.604958 13.6527 0.541088 13.806C0.477219 13.9594 0.444336 14.1238 0.444336 14.2899C0.444336 14.456 0.477219 14.6205 0.541088 14.7738C0.604958 14.9271 0.698549 15.0663 0.816463 15.1833C0.933415 15.3012 1.07256 15.3948 1.22586 15.4587C1.37916 15.5226 1.5436 15.5554 1.70967 15.5554C1.87575 15.5554 2.04018 15.5226 2.19349 15.4587C2.34679 15.3948 2.48593 15.3012 2.60288 15.1833L7.99989 9.77291L13.3969 15.1833C13.5139 15.3012 13.653 15.3948 13.8063 15.4587C13.9596 15.5226 14.124 15.5554 14.2901 15.5554C14.4562 15.5554 14.6206 15.5226 14.7739 15.4587C14.9272 15.3948 15.0664 15.3012 15.1833 15.1833C15.3012 15.0663 15.3948 14.9271 15.4587 14.7738C15.5226 14.6205 15.5554 14.456 15.5554 14.2899C15.5554 14.1238 15.5226 13.9594 15.4587 13.806C15.3948 13.6527 15.3012 13.5136 15.1833 13.3966L9.77373 7.99882Z" fill="#142630"/>
</svg>
