<svg width="142" height="108" viewBox="0 0 142 108" fill="none" xmlns="http://www.w3.org/2000/svg">
<g clip-path="url(#clip0_1840_34016)">
<path d="M29.2223 33.1115C34.4445 33.1115 39.6945 33.1115 44.9167 33.1115C48.5556 33.1115 50.4723 34.6016 50.4723 38.1887C50.4723 48.7293 50.4723 59.2975 50.4723 69.8382C50.4723 73.4529 48.5 74.9705 44.9167 74.9429C34.4538 74.9429 23.9815 74.9429 13.5 74.9429C12.762 75.0594 12.0065 74.9992 11.2966 74.7672C10.5866 74.5353 9.94269 74.1383 9.41832 73.6093C8.89395 73.0803 8.50429 72.4346 8.28177 71.7259C8.05924 71.0172 8.01028 70.2659 8.13894 69.5346C8.13894 59.1596 8.13894 48.7661 8.13894 38.3543C8.13894 34.4912 10.1389 32.8356 13.9723 33.0288C19.0556 33.1115 24.1389 33.1115 29.2223 33.1115ZM29.5278 41.7758C26.5834 41.7758 23.6389 41.9138 20.7223 41.7758C17.8056 41.6379 17.1667 42.6864 17.2223 45.225C17.2223 51.0471 17.2223 56.8693 17.2223 62.6915C17.2223 65.0921 17.8056 66.3614 20.6112 66.2786C26.4723 66.1131 32.3334 66.2786 38.1945 66.2786C40.6112 66.2786 41.4723 65.368 41.4445 63.0502C41.4445 57.6971 41.1389 52.3164 41.4445 46.9633C41.75 42.576 40 41.2791 35.8889 41.7758C33.7692 41.8774 31.6454 41.859 29.5278 41.7206V41.7758Z" fill="#2A2D33"/>
<path d="M112.806 33.1125C117.889 33.1125 122.972 33.1125 128.028 33.1125C131.889 33.1125 133.861 34.6026 133.889 38.438C133.889 48.8499 133.889 59.2525 133.889 69.646C134 70.3868 133.931 71.1433 133.687 71.852C133.443 72.5608 133.032 73.2013 132.488 73.72C131.944 74.2387 131.283 74.6205 130.561 74.8334C129.838 75.0463 129.074 75.0842 128.333 74.9439C117.722 74.9439 107.083 74.9439 96.4723 74.9439C95.7757 75.0413 95.0659 74.9761 94.3992 74.7536C93.7324 74.531 93.127 74.1572 92.631 73.6618C92.1349 73.1664 91.7619 72.563 91.5415 71.8995C91.3211 71.2359 91.2593 70.5305 91.3611 69.8391C91.3611 59.2985 91.3611 48.7303 91.3611 38.1897C91.3611 34.575 93.3611 33.0297 96.9167 33.1125C102.333 33.1125 107.556 33.1125 112.806 33.1125ZM100.611 53.8351C100.611 56.8979 100.611 59.9884 100.611 63.0512C100.611 65.369 101.444 66.3072 103.861 66.252C109.722 66.252 115.583 66.0865 121.444 66.252C124.222 66.252 124.889 65.0655 124.806 62.6649C124.806 59.7676 124.806 56.8427 124.806 53.9178C124.806 41.7768 124.806 41.7768 112.5 41.7768C100.194 41.7768 100.583 41.7216 100.611 53.7799V53.8351Z" fill="#2A2D33"/>
<path d="M71.1665 49.668C71.7893 49.6747 72.4037 49.8123 72.9692 50.0716C73.5348 50.3309 74.0387 50.7061 74.4479 51.1725C74.8571 51.639 75.1624 52.1861 75.3437 52.7781C75.525 53.37 75.5782 53.9933 75.4998 54.6072C75.4998 57.2009 76.5276 58.1115 79.0832 57.9735C79.6639 57.8781 80.2588 57.9131 80.8241 58.0757C81.3895 58.2384 81.9111 58.5247 82.3506 58.9137C82.7901 59.3026 83.1364 59.7844 83.3641 60.3236C83.5918 60.8628 83.6951 61.4457 83.6665 62.0297C83.7581 62.6488 83.7012 63.2805 83.5005 63.8736C83.2998 64.4666 82.9609 65.0042 82.5115 65.4426C82.0621 65.8809 81.5148 66.2077 80.9143 66.3962C80.3137 66.5847 79.6768 66.6297 79.0554 66.5274C75.9443 66.3343 75.4998 67.9071 75.5554 70.4181C75.5554 75.3297 75.5554 80.2137 75.5554 85.1253C75.5554 88.2433 75.0832 91.251 71.0832 91.3338C67.0832 91.4166 66.4721 88.2985 66.4443 85.2633C66.4443 80.2137 66.4443 75.1641 66.4443 70.1146C66.4443 67.7415 65.9443 66.3067 63.1387 66.5274C62.5204 66.6459 61.8829 66.6196 61.2766 66.4508C60.6702 66.282 60.1118 65.9753 59.6455 65.5549C59.1792 65.1346 58.8179 64.6122 58.5901 64.029C58.3623 63.4459 58.2743 62.8181 58.3332 62.1953C58.2906 61.5722 58.3934 60.9477 58.6337 60.3706C58.8739 59.7935 59.2451 59.2792 59.7182 58.8679C60.1914 58.4567 60.7538 58.1595 61.3615 57.9996C61.9693 57.8397 62.606 57.8213 63.2221 57.9459C65.6387 58.1115 66.4721 57.0906 66.4998 54.7727C66.6665 51.8202 67.8054 49.668 71.1665 49.668Z" fill="#2A2D33"/>
<path d="M29.3053 25.165C24.0553 25.165 18.8331 25.165 13.5831 25.165C12.8458 25.3161 12.0827 25.2878 11.3589 25.0824C10.635 24.8771 9.97191 24.5009 9.42614 23.9858C8.88036 23.4708 8.46812 22.8322 8.22459 22.1247C7.98105 21.4171 7.91345 20.6615 8.02755 19.9223C8.02755 15.0107 8.02755 10.1267 8.02755 5.24272C8.33311 2.37302 9.24977 0 12.6387 0C16.0276 0 16.9998 2.29024 17.1942 5.18753C17.1942 5.93255 17.1942 6.70516 17.1942 7.47777C17.3331 16.556 17.3331 16.556 26.6109 16.556C32.7776 16.556 38.8887 16.556 45.0831 16.556C48.1942 16.556 50.3609 17.7701 50.3609 20.9433C50.3609 24.1165 48.0553 25.2202 44.9998 25.1926C39.7776 25.1099 34.5276 25.165 29.3053 25.165Z" fill="#2A2D33"/>
<path d="M112.667 25.1655C107.444 25.1655 102.222 25.1655 96.9721 25.1655C93.8609 25.2207 91.6665 24.0066 91.6665 20.8334C91.6665 17.6602 93.8887 16.5564 96.9721 16.5564C104.667 16.5564 112.361 16.5564 120.055 16.5564C123.583 16.5564 125.194 15.7562 124.805 12.0311C124.676 9.58328 124.741 7.12904 125 4.69134C125 1.93202 126.333 0.000489604 129.417 0.000489604C130.004 -0.0367615 130.592 0.0516414 131.142 0.259724C131.692 0.467806 132.19 0.79072 132.604 1.20664C133.017 1.62256 133.336 2.12179 133.539 2.6706C133.741 3.21942 133.823 3.80501 133.778 4.38782C133.944 9.90647 133.944 15.4251 133.778 20.9438C133.778 23.7031 131.805 25.2483 128.833 25.2207L112.667 25.1655Z" fill="#2A2D33"/>
<path d="M67.2219 31.071C67.2219 34.2718 67.2219 37.5002 67.2219 40.7011C67.2219 43.9019 65.833 45.8886 62.6108 45.861C59.3885 45.8334 58.2496 43.7363 58.1941 40.9494C58.1941 34.3822 58.1941 27.7874 58.1941 21.2202C58.1211 20.5999 58.1885 19.9712 58.3913 19.38C58.5942 18.7888 58.9274 18.2501 59.3666 17.8032C59.8059 17.3563 60.34 17.0125 60.9301 16.7969C61.5202 16.5813 62.1514 16.4993 62.7774 16.557C65.9163 16.557 67.0552 18.7092 67.1663 21.4134C67.3052 24.6142 67.1941 27.8426 67.2219 31.071Z" fill="#2A2D33"/>
<path d="M83.8608 31.4289C83.8608 34.6573 83.8608 37.8582 83.8608 41.059C83.8608 44.2598 82.3053 45.8602 79.3608 45.8602C78.7422 45.8687 78.1289 45.7455 77.5621 45.499C76.9954 45.2524 76.4884 44.8881 76.0752 44.4306C75.662 43.9731 75.3523 43.4331 75.1668 42.8467C74.9813 42.2604 74.9243 41.6414 74.9997 41.0314C74.9997 34.4642 74.8608 27.8694 74.9997 21.3022C74.9278 20.6969 74.9878 20.0833 75.1757 19.503C75.3635 18.9228 75.6749 18.3895 76.0885 17.9393C76.5022 17.4891 77.0085 17.1326 77.5731 16.8939C78.1377 16.6553 78.7474 16.5401 79.3608 16.5562C82.4997 16.5562 83.6942 18.6257 83.8331 21.3298C83.9719 24.8341 83.8608 28.0626 83.8608 31.4289Z" fill="#2A2D33"/>
<path d="M33.0555 99.6673C30.6667 99.281 27.0278 100.937 25.6111 97.4599C24.1121 93.4263 24.1121 88.9937 25.6111 84.9601C26.25 82.9734 28.2222 82.5043 30.2222 82.8354C31.2207 83.0042 32.1274 83.5172 32.7828 84.2843C33.4381 85.0514 33.8003 86.0235 33.8055 87.0296C34.0278 88.9887 33.8055 91.0858 36.8611 90.9478C39.9167 90.8099 42.1111 92.2723 42 95.4456C41.8889 98.6188 39.2222 99.8329 36.1667 99.6673H33.0555Z" fill="#2A2D33"/>
<path d="M108.333 99.6664H106.027C102.944 99.8595 100.194 99.1421 99.9997 95.6102C99.8053 92.0782 102.222 90.8089 105.555 91.0021C108.083 91.1676 108.111 89.5396 108.333 87.7461C108.333 84.8212 109.555 82.7793 112.916 82.7793C116.278 82.7793 117.083 85.3731 117.222 88.2979C117.222 89.2361 117.222 90.1467 117.222 91.0573C117.25 99.3353 116.916 99.6664 108.333 99.6664Z" fill="#2A2D33"/>
<path d="M57.9165 107.945C55.5554 107.586 51.861 109.187 50.5554 105.599C49.0271 101.562 49.0271 97.1099 50.5554 93.0721C50.9614 92.2259 51.6693 91.5596 52.5419 91.2027C53.4146 90.8458 54.3895 90.8237 55.2776 91.1406C56.2822 91.3328 57.1823 91.8808 57.8108 92.6827C58.4392 93.4846 58.7532 94.4858 58.6943 95.5004C58.6943 97.9837 59.1943 99.5842 62.2776 99.3358C62.8974 99.2284 63.534 99.2688 64.135 99.4537C64.736 99.6385 65.2842 99.9625 65.7345 100.399C66.1847 100.836 66.5242 101.372 66.7248 101.964C66.9255 102.557 66.9817 103.188 66.8888 103.806C66.8888 106.758 64.7777 108 61.861 107.945H57.9165Z" fill="#2A2D33"/>
<path d="M84.611 107.89C82.0833 107.89 80.5277 107.89 79.0555 107.89C78.5063 107.899 77.9613 107.795 77.4543 107.585C76.9474 107.375 76.4894 107.063 76.1089 106.67C75.7285 106.276 75.4336 105.809 75.2428 105.298C75.052 104.786 74.9694 104.241 74.9999 103.696C74.905 103.152 74.933 102.593 75.082 102.061C75.2311 101.529 75.4973 101.037 75.8616 100.619C76.2258 100.202 76.6789 99.8705 77.1881 99.6486C77.6973 99.4267 78.2497 99.32 78.8055 99.3363C82.3333 99.5295 83.2499 98.067 83.3333 94.8662C83.3421 94.3281 83.4632 93.7976 83.689 93.3084C83.9148 92.8191 84.2403 92.3818 84.645 92.0239C85.0496 91.666 85.5246 91.3954 86.04 91.2292C86.5553 91.063 87.0997 91.0048 87.6388 91.0583C88.2204 91.0108 88.8055 91.0867 89.3552 91.2812C89.9049 91.4756 90.4066 91.7841 90.827 92.1861C91.2475 92.588 91.5769 93.0743 91.7935 93.6125C92.0101 94.1507 92.1089 94.7286 92.0833 95.3077C92.3629 98.06 92.3629 100.833 92.0833 103.586C91.6666 109.104 87.111 107.752 84.611 107.89Z" fill="#2A2D33"/>
<path d="M7.74967 91.3897C4.9719 91.2241 0.194119 92.4383 0.0830078 87.2507C0.0830078 81.7321 4.80523 82.891 8.41634 82.7254C9.77745 82.7254 11.1941 82.7254 12.5552 82.7254C13.1347 82.6622 13.721 82.7229 14.2749 82.9036C14.8287 83.0842 15.3372 83.3805 15.7661 83.7727C16.1951 84.1648 16.5345 84.6436 16.7617 85.1769C16.9888 85.7101 17.0984 86.2856 17.083 86.8644C17.083 89.7893 15.4163 91.3069 12.4719 91.3621L7.74967 91.3897Z" fill="#2A2D33"/>
<path d="M133.722 91.3346C132.028 91.3346 130.333 91.3346 128.666 91.3346C127.657 91.172 126.739 90.6579 126.077 89.8844C125.414 89.1109 125.05 88.1285 125.05 87.1128C125.05 86.0972 125.414 85.1148 126.077 84.3413C126.739 83.5678 127.657 83.0537 128.666 82.8911C131.444 82.6703 134.222 82.8911 137 82.8911C139.778 82.8911 141.916 84.1052 142.028 87.0025C142.139 89.8998 140.083 91.6105 136.972 91.5554H133.722V91.3346Z" fill="#2A2D33"/>
<path d="M9.24985 99.3359C12.2221 99.529 17.0554 98.2597 16.9165 103.861C16.9165 109.021 12.1665 107.862 8.77763 108C7.38874 108 5.99985 108 4.63874 108C4.01276 108.081 3.37654 108.018 2.77876 107.816C2.18098 107.615 1.63747 107.281 1.1898 106.839C0.74214 106.397 0.402183 105.859 0.195936 105.266C-0.0103112 104.674 -0.0773827 104.042 -0.000148328 103.42C-0.008002 102.843 0.108111 102.271 0.340439 101.742C0.572767 101.213 0.915965 100.74 1.34712 100.354C1.77828 99.967 2.28748 99.6763 2.84073 99.5008C3.39397 99.3253 3.97854 99.2691 4.55541 99.3359H9.24985Z" fill="#2A2D33"/>
<path d="M134.611 99.3367C137.139 99.3367 141.805 98.2605 141.917 103.448C142.028 108.636 137.222 107.835 133.583 107.973C132.055 107.973 130.528 107.973 129 107.973C127.858 107.973 126.763 107.523 125.955 106.721C125.148 105.919 124.694 104.831 124.694 103.696C124.694 102.562 125.148 101.474 125.955 100.672C126.763 99.8701 127.858 99.4194 129 99.4194C130.694 99.3367 132.222 99.3367 134.611 99.3367Z" fill="#2A2D33"/>
<path d="M33.7775 53.9175C33.4164 56.5113 32.1664 58.1945 29.3608 58.2221C28.7782 58.2814 28.1896 58.2119 27.6372 58.0187C27.0847 57.8256 26.5822 57.5135 26.1654 57.1047C25.7486 56.696 25.428 56.2008 25.2265 55.6546C25.0249 55.1083 24.9475 54.5246 24.9997 53.9451C24.9481 53.3682 25.0251 52.7871 25.225 52.2431C25.425 51.699 25.743 51.2054 26.1566 50.7971C26.5702 50.3889 27.0692 50.0762 27.6182 49.881C28.1671 49.6859 28.7526 49.6133 29.333 49.6682C32.1664 49.6682 33.333 51.379 33.7775 53.9175Z" fill="#2A2D33"/>
<path d="M117.111 53.8618C116.778 56.4555 115.556 58.1663 112.75 58.2215C112.168 58.2883 111.579 58.2265 111.024 58.0404C110.469 57.8543 109.962 57.5485 109.54 57.145C109.118 56.7416 108.791 56.2503 108.582 55.7066C108.373 55.1628 108.289 54.5799 108.333 53.9997C108.274 53.4235 108.344 52.8414 108.537 52.2948C108.73 51.7483 109.041 51.2505 109.449 50.837C109.858 50.4236 110.353 50.1044 110.899 49.9023C111.446 49.7002 112.03 49.6201 112.611 49.6676C115.445 49.6676 116.667 51.3232 117.111 53.8618Z" fill="#2A2D33"/>
</g>
<defs>
<clipPath id="clip0_1840_34016">
<rect width="142" height="108" fill="white"/>
</clipPath>
</defs>
</svg>
