<svg width="133" height="126" viewBox="0 0 133 126" fill="none" xmlns="http://www.w3.org/2000/svg">
<g clip-path="url(#clip0_1840_33989)">
<path d="M66.5382 24.1992C59.4493 24.1992 52.3348 24.1992 45.2459 24.1992C40.1276 24.1992 38.9759 23.1214 38.8736 18.0147C38.6944 8.67373 38.6944 8.67373 29.3535 8.67373H13.5378C10.6203 8.67373 7.90762 8.0835 7.88203 4.43951C7.85644 0.795519 10.39 0 13.4098 0C23.0323 0 32.4245 0 41.9446 0C45.7321 0 47.242 1.822 47.37 5.51731C47.7027 15.7821 47.7539 15.7821 58.1697 15.7821C65.9752 15.7821 73.8062 15.7821 81.6117 15.7821C84.8106 15.7821 85.8343 14.6786 85.7063 11.5479C85.1945 -1.2831 86.4229 0.0513238 97.4017 0.0513238H119.564C122.558 0.0513238 125.143 0.718534 125.092 4.36252C125.041 8.00652 122.405 8.64806 119.462 8.64806C112.347 8.64806 105.258 8.64806 98.1439 8.64806C95.3288 8.64806 93.998 9.3666 94.126 12.4717C94.689 26.1752 93.1791 24.0709 81.8932 24.1735C76.7748 24.2505 71.6565 24.1992 66.5382 24.1992Z" fill="#2A2D33"/>
<path d="M66.5383 110.347C61.2664 110.347 56.0201 110.347 50.7483 110.347C48.6242 110.347 47.1398 110.783 47.2934 113.401C47.4213 115.402 46.9607 117.481 50.1085 117.507C53.2562 117.532 55.2268 118.892 54.9197 122.152C54.6126 125.411 52.1302 126.078 49.3151 126.052C44.9134 126.052 40.486 126.052 36.0842 126.052C33.2947 126.052 31.2986 124.846 31.1706 121.895C31.111 121.316 31.1804 120.732 31.3737 120.183C31.567 119.635 31.8795 119.136 32.2885 118.724C32.6975 118.311 33.1928 117.995 33.7386 117.798C34.2844 117.6 34.867 117.527 35.4444 117.584C38.5154 117.584 38.8737 115.967 38.8225 113.529C38.8225 108.961 38.8225 104.394 38.8225 99.8514C38.8225 97.0542 39.36 94.5137 42.7125 94.2571C46.065 94.0004 47.319 96.156 47.2934 99.1072C47.2934 101.468 48.4194 101.93 50.4668 101.93C61.1129 101.93 71.759 101.93 82.4308 101.93C84.7596 101.93 85.7321 101.237 85.7321 98.7992C85.7321 96.3613 87.1396 94.0774 90.1851 94.2571C93.2305 94.4367 94.1262 96.6436 94.1518 99.3894C94.1518 104.394 94.1518 109.372 94.1518 114.35C94.1518 116.403 94.6892 117.532 96.9924 117.584C99.9099 117.584 102.111 119.072 101.778 122.306C101.445 125.539 98.9374 126.18 96.1223 126.155C91.695 126.155 87.2932 126.155 82.8914 126.155C80.1275 126.155 78.1314 124.949 78.0034 121.972C77.9466 121.391 78.0199 120.804 78.2179 120.254C78.416 119.705 78.7337 119.207 79.1481 118.796C79.5625 118.386 80.063 118.073 80.6132 117.881C81.1634 117.689 81.7493 117.623 82.3284 117.686C85.8089 117.686 85.6809 115.659 85.6553 113.221C85.6553 110.013 83.3777 110.655 81.4839 110.501C76.4935 110.347 71.6567 110.347 66.5383 110.347Z" fill="#2A2D33"/>
<path d="M66.538 62.6406C78.6172 62.6406 90.6965 62.6406 102.776 62.6406C108.841 62.6406 109.762 63.5645 109.762 69.4924C109.762 71.2117 109.762 72.9054 109.762 74.6247C109.794 75.164 109.715 75.7041 109.531 76.2119C109.348 76.7197 109.063 77.1847 108.694 77.5785C108.325 77.9723 107.88 78.2867 107.386 78.5024C106.892 78.7181 106.36 78.8307 105.821 78.8333C105.284 78.9245 104.734 78.8953 104.209 78.7476C103.685 78.5999 103.199 78.3374 102.788 77.9791C102.377 77.6208 102.05 77.1756 101.831 76.6754C101.612 76.1753 101.507 75.6327 101.522 75.0867C101.522 71.3657 99.5512 71.1347 96.6338 71.1347C76.604 71.1347 56.5657 71.1347 36.5189 71.1347C33.6526 71.1347 31.6053 71.3144 31.6309 75.061C31.6454 75.6078 31.5394 76.1511 31.3206 76.6522C31.1018 77.1532 30.7755 77.5998 30.365 77.96C29.9544 78.3202 29.4698 78.5852 28.9454 78.7361C28.4211 78.8871 27.8701 78.9203 27.3315 78.8333C26.7875 78.8408 26.2477 78.7368 25.7453 78.5276C25.2428 78.3184 24.7883 78.0084 24.4097 77.6167C24.031 77.225 23.7362 76.7598 23.5433 76.2497C23.3504 75.7396 23.2635 75.1954 23.288 74.6504V74.2142C22.4179 63.3078 23.0321 62.6406 34.0877 62.6406H66.538Z" fill="#2A2D33"/>
<path d="M15.6365 55.5062C11.9513 55.5062 8.24052 55.5062 4.55532 55.5062C1.76583 55.3778 0 54.0691 0 50.9897C0 47.9102 2.04734 47.1147 4.65769 47.1147C9.77602 47.1147 14.8944 47.1147 20.0127 47.1147C22.3415 47.1147 23.314 46.4475 23.2628 43.9583C23.1093 38.4153 23.1093 32.8467 23.2628 27.3037C23.2628 24.7375 22.316 24.0447 19.9871 24.173C17.6583 24.3013 14.8688 24.173 12.3096 24.173C9.75043 24.173 7.95901 23.0952 7.85665 20.1184C7.78282 19.5425 7.84076 18.9573 8.02607 18.4072C8.21138 17.8571 8.51921 17.3565 8.92618 16.9435C9.33316 16.5304 9.8286 16.2158 10.3749 16.0233C10.9212 15.8309 11.5041 15.7658 12.0793 15.8328C17.1976 15.7302 22.316 15.7302 27.4343 15.8328C30.4029 15.8328 31.5546 17.7832 31.7849 20.5803C32.092 24.0703 30.2494 28.4585 32.8085 30.8451C35.3677 33.2316 39.36 31.3583 42.7125 31.5379C45.4252 31.6919 47.1911 32.9237 47.1911 35.6182C47.1911 38.3127 45.5276 39.5701 42.7637 39.7241C39.2832 39.9294 34.8815 38.1587 32.527 40.5966C30.1726 43.0345 31.964 47.1404 31.7849 50.5278C31.6057 53.9151 30.0446 55.5318 26.6665 55.5318H15.6365V55.5062Z" fill="#2A2D33"/>
<path d="M117.056 55.5321H106.41C105.739 55.6089 105.06 55.5368 104.42 55.321C103.779 55.1052 103.195 54.7509 102.706 54.2833C102.218 53.8156 101.838 53.246 101.594 52.6148C101.349 51.9836 101.246 51.3063 101.292 50.6307C101.036 47.1407 102.802 42.7268 100.319 40.3659C97.8368 38.005 93.8189 39.827 90.4408 39.6987C87.7281 39.6987 85.9111 38.4156 85.8855 35.7211C85.8599 33.0266 87.7537 31.4869 90.6456 31.5126C92.9232 31.5126 95.2009 31.3586 97.453 31.5126C100.55 31.7692 101.573 30.3578 101.292 27.5093C101.279 27.3642 101.279 27.2182 101.292 27.0731C101.036 14.9863 101.292 15.6278 112.731 15.6792C115.572 15.6792 118.413 15.6792 121.253 15.6792C121.791 15.6513 122.329 15.7396 122.83 15.9382C123.332 16.1369 123.784 16.4411 124.158 16.8305C124.532 17.2198 124.818 17.6851 124.996 18.1948C125.175 18.7046 125.243 19.2469 125.194 19.7851C125.234 20.3248 125.16 20.8669 124.977 21.3759C124.794 21.885 124.506 22.3497 124.132 22.7396C123.757 23.1294 123.305 23.4358 122.805 23.6386C122.304 23.8414 121.767 23.9362 121.228 23.9166C118.389 24.0706 115.544 24.0706 112.706 23.9166C110.505 23.9166 109.711 24.6865 109.737 26.8934C109.737 32.4621 109.916 38.0307 109.737 43.5737C109.737 46.3452 110.837 46.9354 113.269 46.8584C118.105 46.7301 122.942 46.8584 127.753 46.8584C130.671 46.8584 132.872 47.6539 132.872 51.0413C132.872 54.4287 130.492 55.2498 127.753 55.2755C124.171 55.5578 120.613 55.5321 117.056 55.5321Z" fill="#2A2D33"/>
<path d="M15.6107 118.045H13.0515C10.4924 118.045 8.08675 117.327 7.9332 114.222C7.77965 111.116 9.72462 109.474 12.6933 109.577C16.2249 109.705 15.4572 107.344 15.6363 105.291C15.8666 102.725 14.5103 102.135 12.3094 102.212C10.1085 102.289 7.19104 102.212 4.63187 102.212C1.38173 102.34 -0.000223015 100.723 -0.000223015 97.5156C-0.000223015 92.6912 -0.000223015 87.8411 -0.000223015 83.0167C-0.103241 82.4127 -0.0648069 81.793 0.112043 81.2066C0.288894 80.6201 0.599316 80.0829 1.01879 79.6374C1.43826 79.1918 1.9553 78.8502 2.52905 78.6395C3.10281 78.4288 3.71757 78.3547 4.32477 78.4232C6.73039 78.4232 9.1616 78.4232 11.5672 78.4232C13.9728 78.4232 15.8922 79.7319 15.8922 82.5547C15.9619 83.0959 15.9078 83.646 15.7339 84.1631C15.56 84.6802 15.2709 85.1507 14.8885 85.5391C14.5062 85.9274 14.0407 86.2233 13.5273 86.4043C13.0139 86.5853 12.4661 86.6466 11.9255 86.5837C7.80524 86.2501 8.21471 88.7649 8.18912 91.4338C8.18912 94.8211 10.5436 94 12.3094 94C24.9005 94 23.6721 93.4097 23.6977 105.65V109.91C23.6721 118.045 23.4929 118.045 15.6107 118.045Z" fill="#2A2D33"/>
<path d="M133.077 90.6637C133.077 103.084 134.203 102.366 121.791 102.34C119.999 102.34 117.543 101.493 117.517 104.906C117.517 107.472 117.108 110.038 121.202 109.807C121.767 109.773 122.333 109.866 122.857 110.081C123.381 110.296 123.85 110.626 124.228 111.048C124.607 111.47 124.886 111.972 125.045 112.517C125.203 113.062 125.237 113.636 125.143 114.196C124.964 116.762 123.25 117.84 120.87 118.071H120.46C108.33 118.353 109.149 118.071 109.302 107.806C109.302 104.675 109.302 101.544 109.302 98.4136C109.21 97.8071 109.262 97.1875 109.454 96.6049C109.645 96.0223 109.971 95.4933 110.405 95.0608C110.839 94.6283 111.368 94.3044 111.95 94.1156C112.533 93.9268 113.151 93.8783 113.755 93.9741C116.57 93.9741 119.411 93.8458 122.252 93.9741C125.092 94.1024 124.811 92.383 124.811 90.6124C124.811 88.8417 125.63 86.6091 122.507 86.6604C119.385 86.7118 117.005 85.8392 117.21 82.1953C117.415 78.5513 120.281 78.346 123.096 78.3203C133.077 78.3203 133.077 78.2947 133.077 88.0975V90.6637Z" fill="#2A2D33"/>
<path d="M66.2309 86.7121C63.8253 86.7121 61.4196 86.7121 59.014 86.7121C58.4447 86.7825 57.8669 86.7249 57.3225 86.5436C56.7781 86.3622 56.2809 86.0616 55.8668 85.6636C55.4526 85.2655 55.1321 84.78 54.9284 84.2423C54.7247 83.7046 54.6429 83.1282 54.689 82.5548C54.6416 82.0149 54.7132 81.4712 54.8987 80.9621C55.0842 80.4531 55.3791 79.9912 55.7625 79.6092C56.1459 79.2271 56.6084 78.9344 57.1173 78.7516C57.6261 78.5688 58.1688 78.5005 58.7069 78.5516C63.8253 78.5516 69.1739 78.5516 74.4202 78.5516C74.9611 78.5128 75.5038 78.5951 76.0091 78.7925C76.5144 78.9898 76.9696 79.2973 77.3419 79.6927C77.7141 80.0881 77.9941 80.5615 78.1616 81.0787C78.329 81.5959 78.3798 82.1439 78.3102 82.6831C78.3457 83.2269 78.2632 83.772 78.0686 84.2808C77.8739 84.7896 77.5716 85.2501 77.1824 85.6306C76.7933 86.011 76.3266 86.3024 75.8144 86.4847C75.3022 86.6669 74.7567 86.7357 74.2155 86.6864C71.6563 86.7634 68.918 86.6864 66.2309 86.7121Z" fill="#2A2D33"/>
<path d="M58.8608 47.5258C58.3234 47.581 57.7804 47.5203 57.2683 47.3477C56.7563 47.1751 56.2869 46.8947 55.8918 46.5253C55.4968 46.1558 55.185 45.7059 54.9776 45.2057C54.7702 44.7055 54.6719 44.1666 54.6894 43.6252C54.6072 43.0927 54.6421 42.5485 54.7918 42.0309C54.9414 41.5134 55.2022 41.0349 55.5557 40.629C55.9093 40.2231 56.3471 39.8997 56.8384 39.6814C57.3298 39.4631 57.8628 39.3553 58.4002 39.3653C58.9655 39.267 59.5458 39.3014 60.0956 39.4659C60.6455 39.6304 61.1497 39.9205 61.5688 40.3134C61.988 40.7063 62.3105 41.1914 62.5112 41.7304C62.7118 42.2694 62.785 42.8477 62.7251 43.4199C62.7725 43.9514 62.7068 44.4869 62.5325 44.991C62.3582 45.4951 62.0792 45.9565 61.714 46.3445C61.3488 46.7326 60.9056 47.0385 60.4138 47.2421C59.922 47.4458 59.3927 47.5425 58.8608 47.5258Z" fill="#2A2D33"/>
<path d="M78.3616 43.3696C78.4057 43.9068 78.3352 44.4473 78.1549 44.9552C77.9745 45.463 77.6885 45.9265 77.3157 46.3149C76.9428 46.7033 76.4919 47.0077 75.9927 47.2078C75.4935 47.4079 74.9575 47.4991 74.4204 47.4755C73.8853 47.5483 73.3406 47.5015 72.8256 47.3384C72.3106 47.1752 71.838 46.8998 71.4417 46.5318C71.0454 46.1639 70.7352 45.7125 70.5334 45.2101C70.3316 44.7078 70.2432 44.1668 70.2746 43.6262C70.1847 43.0574 70.2267 42.4754 70.3975 41.9256C70.5683 41.3757 70.8632 40.8728 71.2592 40.4557C71.6553 40.0387 72.142 39.7188 72.6813 39.521C73.2207 39.3231 73.7983 39.2526 74.3693 39.315C76.9284 39.3663 78.1056 41.06 78.3616 43.3696Z" fill="#2A2D33"/>
<path d="M12.1557 39.6996C9.31504 39.4943 7.8819 38.2112 7.85631 35.6707C7.7954 35.1377 7.85179 34.5978 8.02148 34.089C8.19118 33.5802 8.47007 33.1149 8.8385 32.7259C9.20693 32.3369 9.65594 32.0336 10.1539 31.8375C10.6519 31.6413 11.1867 31.557 11.7207 31.5905C12.2854 31.5133 12.8604 31.5686 13.4002 31.7519C13.9401 31.9352 14.4302 32.2416 14.832 32.647C15.2338 33.0524 15.5364 33.5457 15.7159 34.0882C15.8954 34.6307 15.9469 35.2075 15.8665 35.7734C15.8944 36.279 15.819 36.785 15.645 37.2604C15.4711 37.7359 15.2022 38.1707 14.8548 38.5382C14.5074 38.9058 14.0888 39.1984 13.6247 39.3981C13.1606 39.5978 12.6607 39.7004 12.1557 39.6996Z" fill="#2A2D33"/>
<path d="M120.997 39.6738C120.469 39.7052 119.941 39.6223 119.448 39.4307C118.955 39.2392 118.509 38.9435 118.14 38.5638C117.77 38.184 117.487 37.7291 117.309 37.2299C117.131 36.7306 117.062 36.1988 117.107 35.6705C117.063 35.1161 117.134 34.5586 117.315 34.0329C117.496 33.5073 117.784 33.025 118.16 32.6163C118.536 32.2077 118.993 31.8815 119.501 31.6585C120.009 31.4355 120.558 31.3203 121.112 31.3203C121.667 31.3203 122.215 31.4355 122.724 31.6585C123.232 31.8815 123.688 32.2077 124.064 32.6163C124.441 33.025 124.728 33.5073 124.91 34.0329C125.091 34.5586 125.162 35.1161 125.117 35.6705C125.163 36.2189 125.086 36.7705 124.893 37.2855C124.7 37.8006 124.395 38.2664 124.001 38.6492C123.607 39.0321 123.133 39.3226 122.614 39.4998C122.094 39.6769 121.542 39.7364 120.997 39.6738Z" fill="#2A2D33"/>
</g>
<defs>
<clipPath id="clip0_1840_33989">
<rect width="133" height="126" fill="white"/>
</clipPath>
</defs>
</svg>
