<svg width="91" height="80" viewBox="0 0 91 80" fill="none" xmlns="http://www.w3.org/2000/svg">
<path d="M33.7617 25.9375C33.7617 28.1753 32.8728 30.3214 31.2904 31.9037C29.7081 33.4861 27.562 34.375 25.3242 34.375C23.0865 34.375 20.9403 33.4861 19.358 31.9037C17.7757 30.3214 16.8867 28.1753 16.8867 25.9375C16.8867 23.6997 17.7757 21.5536 19.358 19.9713C20.9403 18.3889 23.0865 17.5 25.3242 17.5C27.562 17.5 29.7081 18.3889 31.2904 19.9713C32.8728 21.5536 33.7617 23.6997 33.7617 25.9375Z" fill="#2A2D33"/>
<path d="M11.2617 0.625C8.27803 0.625 5.41655 1.81026 3.30677 3.92005C1.19698 6.02983 0.0117188 8.89131 0.0117188 11.875V68.125C0.0117188 71.1087 1.19698 73.9702 3.30677 76.0799C5.41655 78.1897 8.27803 79.375 11.2617 79.375H78.7617C81.7454 79.375 84.6069 78.1897 86.7167 76.0799C88.8265 73.9702 90.0117 71.1087 90.0117 68.125V11.875C90.0117 8.89131 88.8265 6.02983 86.7167 3.92005C84.6069 1.81026 81.7454 0.625 78.7617 0.625H11.2617ZM78.7617 6.25C80.2536 6.25 81.6843 6.84263 82.7392 7.89752C83.7941 8.95242 84.3867 10.3832 84.3867 11.875V48.4375L63.1411 37.4856C62.6136 37.2214 62.0164 37.1297 61.4339 37.2236C60.8514 37.3175 60.3132 37.5922 59.8955 38.0088L39.0267 58.8775L24.0642 48.91C23.524 48.5503 22.876 48.3886 22.2301 48.4521C21.5842 48.5157 20.9802 48.8007 20.5205 49.2588L5.63672 62.5V11.875C5.63672 10.3832 6.22935 8.95242 7.28424 7.89752C8.33914 6.84263 9.76988 6.25 11.2617 6.25H78.7617Z" fill="#2A2D33"/>
</svg>
