<svg width="91" height="80" viewBox="0 0 91 80" fill="none" xmlns="http://www.w3.org/2000/svg">
<path d="M33.7612 25.9375C33.7612 28.1753 32.8723 30.3214 31.2899 31.9037C29.7076 33.4861 27.5615 34.375 25.3237 34.375C23.086 34.375 20.9399 33.4861 19.3575 31.9037C17.7752 30.3214 16.8862 28.1753 16.8862 25.9375C16.8862 23.6997 17.7752 21.5536 19.3575 19.9713C20.9399 18.3889 23.086 17.5 25.3237 17.5C27.5615 17.5 29.7076 18.3889 31.2899 19.9713C32.8723 21.5536 33.7612 23.6997 33.7612 25.9375Z" fill="#8A939B"/>
<path d="M11.2612 0.625C8.27754 0.625 5.41606 1.81026 3.30628 3.92005C1.1965 6.02983 0.0112305 8.89131 0.0112305 11.875V68.125C0.0112305 71.1087 1.1965 73.9702 3.30628 76.0799C5.41606 78.1897 8.27754 79.375 11.2612 79.375H78.7612C81.7449 79.375 84.6064 78.1897 86.7162 76.0799C88.826 73.9702 90.0112 71.1087 90.0112 68.125V11.875C90.0112 8.89131 88.826 6.02983 86.7162 3.92005C84.6064 1.81026 81.7449 0.625 78.7612 0.625H11.2612ZM78.7612 6.25C80.2531 6.25 81.6838 6.84263 82.7387 7.89752C83.7936 8.95242 84.3862 10.3832 84.3862 11.875V48.4375L63.1406 37.4856C62.6131 37.2214 62.0159 37.1297 61.4334 37.2236C60.8509 37.3175 60.3127 37.5922 59.895 38.0088L39.0262 58.8775L24.0637 48.91C23.5235 48.5503 22.8755 48.3886 22.2296 48.4521C21.5838 48.5157 20.9797 48.8007 20.52 49.2588L5.63623 62.5V11.875C5.63623 10.3832 6.22886 8.95242 7.28376 7.89752C8.33865 6.84263 9.76939 6.25 11.2612 6.25H78.7612Z" fill="#8A939B"/>
</svg>
