<svg width="24" height="22" viewBox="-11 -13 48 48" fill="none" xmlns="http://www.w3.org/2000/svg">
<path d="M12 0C18.6274 0 24 4.17682 24 9.33058C24 14.4832 18.6274 18.66 12 18.66C11.3401 18.6604 10.6808 18.6185 10.0263 18.5346L4.98857 21.8211C4.416 22.1232 4.21371 22.0902 4.44914 21.3503L5.46857 17.1576C2.17714 15.4932 0 12.6091 0 9.33058C0 4.17796 5.37257 0 12 0ZM18.7509 9.18809L20.4309 7.56478C20.5278 7.46436 20.5819 7.33033 20.5817 7.19092C20.5815 7.05152 20.5271 6.91762 20.43 6.81743C20.3328 6.71725 20.2004 6.65859 20.0607 6.65383C19.921 6.64906 19.785 6.69856 19.6811 6.79189L17.4777 8.91906V7.16123C17.4777 7.01853 17.4209 6.88167 17.3197 6.78077C17.2186 6.67986 17.0814 6.62317 16.9383 6.62317C16.7952 6.62317 16.658 6.67986 16.5569 6.78077C16.4557 6.88167 16.3989 7.01853 16.3989 7.16123V10.0761C16.3786 10.1593 16.3786 10.246 16.3989 10.3292V11.9696C16.3989 12.1123 16.4557 12.2492 16.5569 12.3501C16.658 12.451 16.7952 12.5077 16.9383 12.5077C17.0814 12.5077 17.2186 12.451 17.3197 12.3501C17.4209 12.2492 17.4777 12.1123 17.4777 11.9696V10.4158L17.9657 9.94502L19.5977 12.2626C19.6385 12.3204 19.6902 12.3697 19.7501 12.4076C19.8099 12.4455 19.8767 12.4713 19.9465 12.4835C20.0163 12.4956 20.0879 12.494 20.1571 12.4786C20.2262 12.4631 20.2917 12.4343 20.3497 12.3937C20.4077 12.353 20.4571 12.3014 20.4951 12.2417C20.5331 12.182 20.559 12.1154 20.5712 12.0458C20.5834 11.9761 20.5817 11.9047 20.5663 11.8357C20.5508 11.7667 20.5219 11.7014 20.4811 11.6436L18.7509 9.18695V9.18809ZM15.3703 11.3814H13.7017V7.17833C13.6953 7.04006 13.6358 6.90957 13.5354 6.81397C13.4351 6.71838 13.3016 6.66503 13.1629 6.66503C13.0241 6.66503 12.8907 6.71838 12.7903 6.81397C12.6899 6.90957 12.6304 7.04006 12.624 7.17833V11.9194C12.624 12.2158 12.864 12.4575 13.1623 12.4575H15.3703C15.5134 12.4575 15.6506 12.4008 15.7517 12.2999C15.8529 12.199 15.9097 12.0621 15.9097 11.9194C15.9097 11.7767 15.8529 11.6399 15.7517 11.539C15.6506 11.4381 15.5134 11.3814 15.3703 11.3814ZM8.67657 10.1365L9.472 8.19062L10.2011 10.1365H8.67657ZM11.56 10.6928L11.5623 10.6746C11.562 10.539 11.5101 10.4087 11.4171 10.3098L10.2217 7.11792C10.1716 6.96581 10.0761 6.83258 9.9481 6.73602C9.82006 6.63947 9.66552 6.58419 9.50514 6.57758C9.34359 6.57687 9.18565 6.62524 9.05233 6.71627C8.91902 6.8073 8.81665 6.93666 8.75886 7.08714L6.86057 11.7325C6.83378 11.7979 6.82017 11.8679 6.82052 11.9386C6.82087 12.0093 6.83517 12.0792 6.8626 12.1443C6.89003 12.2095 6.93006 12.2686 6.98041 12.3183C7.03075 12.3681 7.09041 12.4074 7.156 12.4341C7.22159 12.4608 7.29181 12.4744 7.36265 12.4741C7.4335 12.4737 7.50358 12.4595 7.5689 12.4321C7.63422 12.4047 7.6935 12.3648 7.74334 12.3146C7.79319 12.2644 7.83264 12.2049 7.85943 12.1394L8.23657 11.2127H10.6023L10.944 12.1246C10.9672 12.1928 11.0039 12.2556 11.052 12.3094C11.1 12.3631 11.1583 12.4067 11.2235 12.4376C11.2888 12.4684 11.3595 12.4859 11.4316 12.489C11.5038 12.4921 11.5758 12.4807 11.6434 12.4555C11.711 12.4303 11.7729 12.3919 11.8253 12.3424C11.8778 12.293 11.9197 12.2335 11.9487 12.1676C11.9777 12.1016 11.9932 12.0306 11.9941 11.9586C11.9951 11.8866 11.9815 11.8151 11.9543 11.7484L11.56 10.6928ZM7.76343 7.18403C7.76343 7.04153 7.70675 6.90484 7.60584 6.80397C7.50492 6.7031 7.36801 6.64627 7.22514 6.64597H3.51657C3.37351 6.64597 3.2363 6.70266 3.13514 6.80357C3.03398 6.90447 2.97714 7.04133 2.97714 7.18403C2.97714 7.32674 3.03398 7.4636 3.13514 7.5645C3.2363 7.66541 3.37351 7.7221 3.51657 7.7221H4.84229V11.981C4.84229 12.1237 4.89912 12.2606 5.00028 12.3615C5.10144 12.4624 5.23865 12.5191 5.38171 12.5191C5.52478 12.5191 5.66199 12.4624 5.76315 12.3615C5.86431 12.2606 5.92114 12.1237 5.92114 11.981V7.7221H7.224C7.36707 7.7221 7.50427 7.66541 7.60543 7.5645C7.7066 7.4636 7.76343 7.32674 7.76343 7.18403Z" fill="white"/>
</svg>
