<svg width="48" height="48" viewBox="-14 -14 48 48" fill="none" xmlns="http://www.w3.org/2000/svg">
<path d="M16.7724 6.26832C16.9305 6.26832 17.0885 6.27386 17.2439 6.28216C16.5902 2.72199 13.0032 0 8.67418 0C3.88436 0 0 3.3361 0 7.45228C0 9.69571 1.16799 11.7178 2.99766 13.0844C3.07312 13.1394 3.13467 13.2123 3.17709 13.2971C3.21952 13.3818 3.24159 13.4758 3.24143 13.5712C3.24143 13.6376 3.22804 13.6985 3.21197 13.7621C3.06463 14.3236 2.83157 15.2227 2.82085 15.2642C2.8021 15.3361 2.77531 15.408 2.77531 15.4827C2.77531 15.6459 2.9039 15.7815 3.06463 15.7815C3.12624 15.7815 3.17714 15.7566 3.23072 15.7261L5.13004 14.5947C5.27202 14.509 5.42471 14.4564 5.5908 14.4564C5.67653 14.4564 5.76225 14.4703 5.8453 14.4952C6.732 14.7579 7.68836 14.9046 8.67686 14.9046C8.83759 14.9046 8.99565 14.9018 9.1537 14.8935C8.9635 14.3126 8.8617 13.7012 8.8617 13.0678C8.8617 9.3112 12.4032 6.26832 16.7724 6.26832V6.26832ZM11.5674 3.87552C12.2049 3.87552 12.7246 4.4094 12.7246 5.06777C12.7246 5.72614 12.2076 6.26003 11.5674 6.26003C10.9298 6.26003 10.4101 5.72614 10.4101 5.06777C10.4101 4.4094 10.9298 3.87552 11.5674 3.87552ZM5.78368 6.26003C5.14611 6.26003 4.62641 5.72614 4.62641 5.06777C4.62641 4.4094 5.14343 3.87552 5.78368 3.87552C6.42393 3.87552 6.94095 4.4094 6.94095 5.06777C6.94095 5.72614 6.42125 6.26003 5.78368 6.26003ZM21.5033 17.7566C23.0276 16.6169 24 14.935 24 13.0622C24 9.63209 20.7639 6.852 16.7697 6.852C12.7782 6.852 9.53946 9.63209 9.53946 13.0622C9.53946 16.4924 12.7755 19.2725 16.7697 19.2725C17.5948 19.2725 18.3931 19.1508 19.1298 18.9322C19.1995 18.9101 19.2691 18.899 19.3414 18.899C19.4807 18.899 19.6067 18.9433 19.7245 19.0124L21.3077 19.953C21.3533 19.9806 21.3961 20 21.447 20C21.4788 20.0003 21.5103 19.994 21.5397 19.9817C21.5691 19.9694 21.5959 19.9511 21.6185 19.9281C21.6408 19.9048 21.6585 19.8771 21.6704 19.8467C21.6824 19.8163 21.6884 19.7838 21.6881 19.751C21.6881 19.6902 21.664 19.6293 21.6506 19.5685C21.6426 19.5353 21.447 18.7856 21.3238 18.3153C21.3104 18.2628 21.2997 18.2102 21.2997 18.1577C21.3024 17.9945 21.3827 17.8479 21.5033 17.7566V17.7566ZM14.3641 12.0719C13.831 12.0719 13.3997 11.6266 13.3997 11.0788C13.3997 10.5311 13.831 10.0858 14.3641 10.0858C14.8972 10.0858 15.3285 10.5311 15.3285 11.0788C15.3285 11.6266 14.8945 12.0719 14.3641 12.0719ZM19.1834 12.0719C18.6503 12.0719 18.219 11.6266 18.219 11.0788C18.219 10.5311 18.6503 10.0858 19.1834 10.0858C19.7165 10.0858 20.1478 10.5311 20.1478 11.0788C20.1465 11.3423 20.0444 11.5945 19.8638 11.7806C19.6831 11.9666 19.4385 12.0713 19.1834 12.0719V12.0719Z" fill="white"/>
</svg>
