<svg width="48" height="48" viewBox="-14 -14 48 48" fill="none" xmlns="http://www.w3.org/2000/svg">
<path d="M10.4803 10.3415C8.5887 9.86107 6.45264 10.7812 5.63043 12.4098C4.79434 14.0709 5.60266 15.9139 7.51373 16.5164C9.49146 17.1407 11.8247 16.1853 12.6358 14.3912C13.433 12.6378 12.4358 10.8355 10.4803 10.3415V10.3415ZM9.03591 14.5812C8.65259 15.181 7.82761 15.4416 7.20818 15.1675C6.59708 14.896 6.41653 14.1985 6.80263 13.6149C7.18318 13.034 7.9776 12.7735 8.59148 13.0259C9.21369 13.2838 9.41368 13.9759 9.03591 14.5812V14.5812ZM10.2998 12.9933C10.1609 13.2268 9.85256 13.338 9.61368 13.2403C9.37757 13.1453 9.30258 12.8848 9.43591 12.6568C9.57479 12.4288 9.86923 12.3202 10.1053 12.4098C10.347 12.4966 10.4331 12.7599 10.2998 12.9933V12.9933ZM19.5912 7.64081C20.0079 7.77109 20.4523 7.54852 20.5884 7.1441C20.9162 6.15068 20.7107 5.01611 19.944 4.18555C19.5801 3.79145 19.1164 3.49793 18.5995 3.33451C18.0826 3.17108 17.5309 3.14351 16.9996 3.25456C16.898 3.27567 16.8016 3.31617 16.716 3.37372C16.6304 3.43128 16.5573 3.50477 16.5007 3.58998C16.4442 3.6752 16.4055 3.77046 16.3867 3.87033C16.3679 3.9702 16.3695 4.0727 16.3913 4.17198C16.413 4.27116 16.4546 4.36517 16.5136 4.44862C16.5725 4.53208 16.6478 4.60334 16.735 4.65831C16.8222 4.71328 16.9197 4.75089 17.0218 4.76897C17.124 4.78706 17.2288 4.78526 17.3302 4.76369C17.8413 4.65783 18.394 4.81254 18.7718 5.21697C18.9502 5.40957 19.0732 5.64488 19.1283 5.89898C19.1834 6.15308 19.1687 6.41692 19.0857 6.66367C19.0529 6.76026 19.0401 6.86221 19.0478 6.96368C19.0555 7.06514 19.0836 7.16412 19.1306 7.25493C19.1776 7.34573 19.2425 7.42656 19.3215 7.49278C19.4006 7.55901 19.4922 7.60931 19.5912 7.64081V7.64081ZM22.3634 2.04942C20.7884 0.342151 18.4635 -0.309272 16.3163 0.135867C16.1981 0.160284 16.086 0.207304 15.9865 0.27422C15.887 0.341136 15.802 0.426628 15.7364 0.525772C15.6708 0.624917 15.626 0.735757 15.6044 0.851911C15.5828 0.968065 15.585 1.08724 15.6108 1.20257C15.6359 1.31807 15.6841 1.4276 15.7526 1.52489C15.8211 1.62219 15.9085 1.70535 16.0099 1.76963C16.1112 1.8339 16.2246 1.87803 16.3434 1.89949C16.4622 1.92095 16.5842 1.91933 16.7024 1.89471C18.2302 1.57714 19.8801 2.04128 21.0023 3.25456C22.1217 4.46783 22.4245 6.12353 21.9467 7.57295C21.7912 8.04523 22.0551 8.55008 22.5384 8.7048C23.0217 8.8568 23.5384 8.59894 23.6939 8.12937V8.12666C24.3634 6.0801 23.9411 3.75398 22.3634 2.04942V2.04942ZM18.0274 9.14722C17.6885 9.04951 17.458 8.98165 17.6357 8.54737C18.0191 7.60552 18.0579 6.79124 17.6441 6.2131C16.8663 5.12468 14.733 5.1844 12.2886 6.18325C12.2886 6.18325 11.522 6.51167 11.7164 5.91725C12.0914 4.73654 12.0359 3.74855 11.4498 3.17584C10.1248 1.87842 6.59986 3.2247 3.57492 6.17782C1.31386 8.38994 0 10.7351 0 12.7626C0 16.6413 5.08878 19 10.0692 19C16.5969 19 20.9384 15.295 20.9384 12.3501C20.9384 10.5722 19.4051 9.56522 18.0274 9.14722ZM10.0831 17.6103C6.11098 17.993 2.6805 16.2396 2.42217 13.6882C2.16384 11.1395 5.17767 8.7618 9.1498 8.37909C13.1219 7.99366 16.5524 9.74979 16.8107 12.2985C17.0663 14.8472 14.0553 17.2249 10.0831 17.6103Z" fill="white"/>
</svg>
